<?xml version="1.0" encoding="utf-8"?>
<!-- Generator: Adobe Illustrator 21.0.0, SVG Export Plug-In . SVG Version: 6.00 Build 0)  -->
<svg version="1.1" id="圖層_1" xmlns="http://www.w3.org/2000/svg" xmlns:xlink="http://www.w3.org/1999/xlink" x="0px" y="0px"
	 viewBox="0 0 1366 768" style="enable-background:new 0 0 1366 768;" xml:space="preserve">
<style type="text/css">
	.st0{opacity:0.8;}
	.st1{fill:#E87A90;}
	.st2{fill:#66BAB7;}
</style>
<g class="st0">
	
		<rect x="695.1" y="99.6" transform="matrix(0.7071 0.7071 -0.7071 0.7071 331.4121 -547.9995)" class="st1" width="264.1" height="52.8"/>
	
		<rect x="488.4" y="361.1" transform="matrix(0.7071 0.7071 -0.7071 0.7071 494.406 -418.6017)" class="st1" width="528.2" height="52.8"/>
	
		<rect x="545.7" y="622.5" transform="matrix(0.7071 0.7071 -0.7071 0.7071 657.4 -289.2039)" class="st1" width="264.1" height="52.8"/>
	
		<rect x="744.1" y="613.2" transform="matrix(0.7071 -0.7071 0.7071 0.7071 -207.2582 778.8595)" class="st1" width="184.9" height="52.8"/>
	
		<rect x="576" y="109" transform="matrix(0.7071 -0.7071 0.7071 0.7071 100.0547 512.3284)" class="st1" width="184.9" height="52.8"/>
</g>
<g class="st0">
	
		<rect x="656.5" y="267" transform="matrix(0.7071 0.7071 -0.7071 0.7071 477.0771 -565.0175)" class="st2" width="528.2" height="52.8"/>
	
		<rect x="488.4" y="435" transform="matrix(0.7071 0.7071 -0.7071 0.7071 546.696 -396.9425)" class="st2" width="528.2" height="52.8"/>
	
		<rect x="912.2" y="519.1" transform="matrix(0.7071 -0.7071 0.7071 0.7071 -91.4732 870.1377)" class="st2" width="184.9" height="52.8"/>
	
		<rect x="576" y="182.9" transform="matrix(0.7071 -0.7071 0.7071 0.7071 47.7647 533.9877)" class="st2" width="184.9" height="52.8"/>
	
		<rect x="362.9" y="369.7" transform="matrix(0.7071 -0.7071 0.7071 0.7071 -138.9853 456.6333)" class="st2" width="237.7" height="52.8"/>
</g>
</svg>
